<?xml version="1.0" encoding="UTF-8" standalone="no"?>
<!-- Created with Inkscape (http://www.inkscape.org/) -->

<svg
   xmlns:dc="http://purl.org/dc/elements/1.1/"
   xmlns:cc="http://creativecommons.org/ns#"
   xmlns:rdf="http://www.w3.org/1999/02/22-rdf-syntax-ns#"
   xmlns:svg="http://www.w3.org/2000/svg"
   xmlns="http://www.w3.org/2000/svg"
   version="1.1"
   width="256"
   height="32"
   id="svg3071">
  <metadata
     id="metadata3077">
    <rdf:RDF>
      <cc:Work
         rdf:about="">
        <dc:format>image/svg+xml</dc:format>
        <dc:type
           rdf:resource="http://purl.org/dc/dcmitype/StillImage" />
        <dc:title></dc:title>
      </cc:Work>
    </rdf:RDF>
  </metadata>
  <defs
     id="defs3075" />
  <path
     d="m 222.06752,19 30,0 0,-6 -30,0 -0.0476,-5.114358 L 207,15.790086 l 15.06756,8.376581 z"
     id="path3135"
     style="fill:#ffffff" />
  <path
     d="m 172.06752,19 30,0 0,-6 -30,0 -0.0476,-5.114358 L 157,15.790086 l 14.31756,8.043247 0.75,0.333334 z"
     id="path3133"
     style="fill:#ffffff" />
  <path
     d="m 136,19 -30,0 0,-6 30,0 0.0476,-5.114358 15.01992,7.904444 L 136.75,23.833333 136,24.166667 z"
     id="path3131"
     style="fill:#ffb800;fill-opacity:1" />
  <path
     d="m 70.06752,19 30,0 0,-6 -30,0 L 70.01992,7.885642 55,15.790086 70.06752,24.166667 z"
     id="path3129"
     style="fill:#ffffff" />
  <path
     d="m 20.06752,19 30,0 0,-6 -30,0 L 20.01992,7.885642 5,15.790086 20.06752,24.166667 z"
     id="path3081"
     style="fill:#ffffff" />
</svg>
