<?xml version="1.0" encoding="UTF-8" standalone="no"?>
<!-- Created with Inkscape (http://www.inkscape.org/) -->

<svg
   xmlns:dc="http://purl.org/dc/elements/1.1/"
   xmlns:cc="http://creativecommons.org/ns#"
   xmlns:rdf="http://www.w3.org/1999/02/22-rdf-syntax-ns#"
   xmlns:svg="http://www.w3.org/2000/svg"
   xmlns="http://www.w3.org/2000/svg"
   xmlns:sodipodi="http://sodipodi.sourceforge.net/DTD/sodipodi-0.dtd"
   xmlns:inkscape="http://www.inkscape.org/namespaces/inkscape"
   id="svg3071"
   version="1.1"
   inkscape:version="0.48.5 r10040"
   width="256"
   height="80"
   sodipodi:docname="instr_rrrrr.svg">
  <metadata
     id="metadata3077">
    <rdf:RDF>
      <cc:Work
         rdf:about="">
        <dc:format>image/svg+xml</dc:format>
        <dc:type
           rdf:resource="http://purl.org/dc/dcmitype/StillImage" />
        <dc:title></dc:title>
      </cc:Work>
    </rdf:RDF>
  </metadata>
  <defs
     id="defs3075" />
  <sodipodi:namedview
     pagecolor="#ffffff"
     bordercolor="#666666"
     borderopacity="1"
     objecttolerance="10"
     gridtolerance="10"
     guidetolerance="10"
     inkscape:pageopacity="0"
     inkscape:pageshadow="2"
     inkscape:window-width="1920"
     inkscape:window-height="913"
     id="namedview3073"
     showgrid="false"
     inkscape:zoom="4.3476018"
     inkscape:cx="161.19543"
     inkscape:cy="8.3398934"
     inkscape:window-x="1440"
     inkscape:window-y="0"
     inkscape:window-maximized="1"
     inkscape:current-layer="svg3071" />
  <path
     style="fill:#ffffff"
     d="m 35,43 -30,0 0,-6 30,0 0.04764,-5.114358 15.019924,7.904444 L 35,48.166667 z m 50,0 -30,0 0,-6 30,0 0.04764,-5.114358 15.019923,7.904444 L 85.75,47.833333 85,48.166667 z m 51,0 -30,0 0,-6 30,0 0.0476,-5.114358 15.01992,7.904444 L 136.75,47.833333 136,48.166667 z m 51,0 -30,0 0,-6 30,0 0.0476,-5.114358 15.01992,7.904444 L 187,48.166667 z m 50,0 -30,0 0,-6 30,0 0.0476,-5.114358 15.01992,7.904444 L 237,48.166667 z"
     id="path3081"
     inkscape:connector-curvature="0"
     sodipodi:nodetypes="cccccccccccccccccccccccccccccccccccccccccc" />
</svg>
