<?xml version="1.0" encoding="UTF-8" standalone="no"?>
<!-- Created with Inkscape (http://www.inkscape.org/) -->

<svg
   xmlns:dc="http://purl.org/dc/elements/1.1/"
   xmlns:cc="http://creativecommons.org/ns#"
   xmlns:rdf="http://www.w3.org/1999/02/22-rdf-syntax-ns#"
   xmlns:svg="http://www.w3.org/2000/svg"
   xmlns="http://www.w3.org/2000/svg"
   version="1.1"
   width="256"
   height="256"
   id="svg3036">
  <metadata
     id="metadata3042">
    <rdf:RDF>
      <cc:Work
         rdf:about="">
        <dc:format>image/svg+xml</dc:format>
        <dc:type
           rdf:resource="http://purl.org/dc/dcmitype/StillImage" />
        <dc:title></dc:title>
      </cc:Work>
    </rdf:RDF>
  </metadata>
  <defs
     id="defs3040" />
  <path
     d="M 3.9937986,127.75226 19,120 l 0,5 30,0 0,6 -30,0 0,5 z m 50.0000004,0 L 69,120 l 0,5 30,0 0,6 -30,0 0,5 -0.75,-0.10094 z m 51.000001,0 L 120,120 l 0,5 30,0 0,6 -30,0 0,5 z m 51,0 L 171,120 l 0,5 15,0 15,0 0,6 -15,0 -15,0 0,5 z m 50,0 L 221,120 l 0,5 30,0 0,6 -30,0 0,5 z"
     id="path3046"
     style="fill:#ffffff" />
</svg>
