<?xml version="1.0" encoding="UTF-8" standalone="no"?>
<!-- Created with Inkscape (http://www.inkscape.org/) -->

<svg
   xmlns:dc="http://purl.org/dc/elements/1.1/"
   xmlns:cc="http://creativecommons.org/ns#"
   xmlns:rdf="http://www.w3.org/1999/02/22-rdf-syntax-ns#"
   xmlns:svg="http://www.w3.org/2000/svg"
   xmlns="http://www.w3.org/2000/svg"
   version="1.1"
   width="256"
   height="256"
   id="svg4143">
  <metadata
     id="metadata4149">
    <rdf:RDF>
      <cc:Work
         rdf:about="">
        <dc:format>image/svg+xml</dc:format>
        <dc:type
           rdf:resource="http://purl.org/dc/dcmitype/StillImage" />
        <dc:title></dc:title>
      </cc:Work>
    </rdf:RDF>
  </metadata>
  <defs
     id="defs4147" />
  <path
     d="M 0,128 0,0 l 128,0 128,0 0,128 0,128 -128,0 -128,0 0,-128 z m 97.737183,77.61328 c 19.965757,-13.90005 31.692847,-21.47107 32.499997,-20.98202 0.69455,0.42082 16.45032,11.22701 35.01282,24.01375 18.5625,12.78674 33.75,23.02897 33.75,22.7605 0,-0.41998 -5.8521,-17.73803 -22.98704,-68.02532 l -3.78898,-11.11982 33.82933,-23.88018 c 18.60613,-13.13411 33.85573,-24.16444 33.88801,-24.51186 0.0323,-0.34742 -18.95382,-0.70859 -42.19132,-0.8026 -23.2375,-0.094 -42.51867,-0.48476 -42.84704,-0.86833 C 154.57459,101.81383 148.76825,85.3 142,65.5 135.23175,45.7 129.37568,29.135262 128.98651,28.689472 c -0.38916,-0.44579 -4.68043,10.80421 -9.53615,25 C 114.59464,67.885262 108.7302,84.9 106.41827,91.5 l -4.20352,12 L 60.357375,104 18.5,104.5 51.25,129.32383 C 69.2625,142.97694 84,154.70374 84,155.38338 c 0,0.67965 -5.172217,17.3832 -11.493814,37.119 -6.321598,19.73581 -11.783975,36.79749 -12.138615,37.91487 -0.592781,1.86768 -0.371427,1.82633 2.743815,-0.51262 1.863738,-1.39931 17.445346,-12.33042 34.625797,-24.29135 z"
     id="path4153"
     style="fill:#000000" />
</svg>
