<?xml version="1.0" encoding="UTF-8" standalone="no"?>
<!-- Created with Inkscape (http://www.inkscape.org/) -->

<svg
   xmlns:dc="http://purl.org/dc/elements/1.1/"
   xmlns:cc="http://creativecommons.org/ns#"
   xmlns:rdf="http://www.w3.org/1999/02/22-rdf-syntax-ns#"
   xmlns:svg="http://www.w3.org/2000/svg"
   xmlns="http://www.w3.org/2000/svg"
   version="1.1"
   width="256"
   height="256"
   id="svg3020">
  <metadata
     id="metadata3026">
    <rdf:RDF>
      <cc:Work
         rdf:about="">
        <dc:format>image/svg+xml</dc:format>
        <dc:type
           rdf:resource="http://purl.org/dc/dcmitype/StillImage" />
        <dc:title></dc:title>
      </cc:Work>
    </rdf:RDF>
  </metadata>
  <defs
     id="defs3024" />
  <path
     d="M 0,128 0,0 l 128,0 128,0 0,128 0,128 -128,0 -128,0 0,-128 z m 196,99.5523 c 0,-0.42362 -5.84384,-9.12339 -49.91699,-74.31181 -10.12934,-14.98227 -18.67934,-27.22919 -19,-27.21539 -0.32065,0.0138 -4.24741,5.52631 -8.72613,12.25 -4.47872,6.7237 -19.666216,29.31301 -33.75,50.19848 C 70.523096,209.35905 59,226.79655 59,227.22358 59,227.65061 89.825,228 127.5,228 c 37.675,0 68.5,-0.20146 68.5,-0.4477 z M 161.96656,73.5 l 34.08415,-46 -20.27535,-0.238466 c -11.15145,-0.131157 -42.48765,0.09384 -69.63601,0.5 L 56.778703,28.5 91.5716,74.272584 c 19.13609,25.174921 35.13443,45.649926 35.55185,45.499996 C 127.54088,119.62266 143.22028,98.8 161.96656,73.5 z"
     id="path3030"
     style="fill:#000000" />
</svg>
