<?xml version="1.0" encoding="UTF-8" standalone="no"?>
<!-- Created with Inkscape (http://www.inkscape.org/) -->

<svg
   xmlns:dc="http://purl.org/dc/elements/1.1/"
   xmlns:cc="http://creativecommons.org/ns#"
   xmlns:rdf="http://www.w3.org/1999/02/22-rdf-syntax-ns#"
   xmlns:svg="http://www.w3.org/2000/svg"
   xmlns="http://www.w3.org/2000/svg"
   version="1.1"
   width="256"
   height="256"
   id="svg3102">
  <metadata
     id="metadata3108">
    <rdf:RDF>
      <cc:Work
         rdf:about="">
        <dc:format>image/svg+xml</dc:format>
        <dc:type
           rdf:resource="http://purl.org/dc/dcmitype/StillImage" />
        <dc:title></dc:title>
      </cc:Work>
    </rdf:RDF>
  </metadata>
  <defs
     id="defs3106" />
  <path
     d="M 0,128 0,0 l 128,0 128,0 0,128 0,128 -128,0 -128,0 0,-128 z m 75.857851,70.5 C 105.05121,181.175 129.46168,167 130.10335,167 c 0.89798,0 89.94462,53.2551 101.85797,60.91703 1.35373,0.87063 2.19436,1.13297 1.86806,0.58297 -0.3263,-0.55 -13.90076,-23.3934 -30.16547,-50.76311 l -29.5722,-49.76311 30.57337,-47.736892 c 16.81535,-26.255288 31.46881,-49.000297 32.56323,-50.544463 1.09443,-1.544167 1.81871,-2.978736 1.60952,-3.187932 -0.2092,-0.209196 -24.67079,13.758038 -54.35909,31.038297 C 154.79043,74.82305 130.02335,88.970119 129.44077,88.980722 128.8582,88.991325 104.7832,75.01329 75.940774,57.918423 47.098349,40.823556 22.643038,26.370548 21.595639,25.800628 c -2.3764,-1.293069 -4.889484,-5.418897 32.677026,53.647152 16.422554,25.82128 29.942021,47.2095 30.043262,47.52938 0.156567,0.49469 -26.711905,45.01438 -54.481356,90.27284 -4.302694,7.0125 -7.650386,12.75 -7.439316,12.75 0.211069,0 24.269238,-14.175 53.462596,-31.5 z"
     id="path3112"
     style="fill:#000000" />
</svg>
