<?xml version="1.0" encoding="UTF-8" standalone="no"?>
<!-- Created with Inkscape (http://www.inkscape.org/) -->

<svg
   xmlns:dc="http://purl.org/dc/elements/1.1/"
   xmlns:cc="http://creativecommons.org/ns#"
   xmlns:rdf="http://www.w3.org/1999/02/22-rdf-syntax-ns#"
   xmlns:svg="http://www.w3.org/2000/svg"
   xmlns="http://www.w3.org/2000/svg"
   version="1.1"
   width="256"
   height="256"
   id="svg3184">
  <metadata
     id="metadata3190">
    <rdf:RDF>
      <cc:Work
         rdf:about="">
        <dc:format>image/svg+xml</dc:format>
        <dc:type
           rdf:resource="http://purl.org/dc/dcmitype/StillImage" />
        <dc:title></dc:title>
      </cc:Work>
    </rdf:RDF>
  </metadata>
  <defs
     id="defs3188" />
  <path
     d="M 0,128 0,0 l 128,0 128,0 0,128 0,128 -128,0 -128,0 0,-128 z m 135.96725,71.20698 C 139.83526,182.54582 143,168.25832 143,167.45698 143,166.65564 143.21442,166 143.47649,166 c 0.26207,0 13.8533,8.14913 30.20273,18.10918 16.34943,9.96005 30.31205,18.33397 31.02804,18.60873 0.71599,0.27475 -7.25024,-12.84661 -17.70273,-29.15858 C 176.55204,157.24736 168,143.57765 168,143.18221 c 0,-0.39544 15.54838,-3.81484 34.55195,-7.59865 19.00357,-3.78381 34.19107,-7.18193 33.75,-7.55138 -0.44107,-0.36945 -15.65195,-3.51124 -33.80195,-6.98177 -18.15,-3.47052 -33.36224,-6.63637 -33.80499,-7.03522 -0.44274,-0.39884 8.41598,-14.844199 19.68605,-32.100795 11.27007,-17.256596 20.35996,-31.506707 20.19975,-31.666914 -0.28525,-0.285258 -4.76288,2.249794 -44.80377,25.366105 C 152.9294,81.876114 143.69666,87 143.25982,87 c -0.73056,0 -16.28563,-61.913479 -16.26771,-64.75 0.004,-0.6875 -0.36437,-1.25 -0.81936,-1.25 -0.45499,0 -4.80999,15.07088 -9.67777,33.490845 l -8.85051,33.490844 -4.07223,-2.386638 C 101.33251,84.2824 86.69803,75.52599 71.051177,66.136363 55.404325,56.746735 42.449726,49.21694 42.263181,49.403485 42.076636,49.59003 50.742947,63.5587 61.521649,80.444974 72.300352,97.331248 81.323298,111.67893 81.572641,112.3287 c 0.311841,0.81265 -10.201257,3.50835 -33.680385,8.63611 -24.847402,5.42659 -33.488759,7.66483 -31.762996,8.22709 1.303907,0.42481 16.509028,3.70621 33.789158,7.292 17.28013,3.58578 31.527397,6.63131 31.660594,6.76785 0.133197,0.13654 -8.500765,14.37758 -19.186582,31.64675 -10.685817,17.26918 -19.308084,31.49518 -19.160594,31.61333 0.14749,0.11815 14.595572,-8.54876 32.106849,-19.25982 17.511277,-10.71105 32.189015,-19.08705 32.617205,-18.61333 0.42818,0.47373 5.00077,15.15786 10.16131,32.63142 6.14332,20.80124 9.63043,31.15896 10.10005,30 0.39448,-0.97356 3.88198,-15.40196 7.75,-32.06312 z"
     id="path3194"
     style="fill:#000000" />
</svg>
