<?xml version="1.0" encoding="UTF-8" standalone="no"?>
<!-- Created with Inkscape (http://www.inkscape.org/) -->

<svg
   xmlns:dc="http://purl.org/dc/elements/1.1/"
   xmlns:cc="http://creativecommons.org/ns#"
   xmlns:rdf="http://www.w3.org/1999/02/22-rdf-syntax-ns#"
   xmlns:svg="http://www.w3.org/2000/svg"
   xmlns="http://www.w3.org/2000/svg"
   version="1.1"
   width="256"
   height="256"
   id="svg3266">
  <metadata
     id="metadata3272">
    <rdf:RDF>
      <cc:Work
         rdf:about="">
        <dc:format>image/svg+xml</dc:format>
        <dc:type
           rdf:resource="http://purl.org/dc/dcmitype/StillImage" />
        <dc:title></dc:title>
      </cc:Work>
    </rdf:RDF>
  </metadata>
  <defs
     id="defs3270" />
  <path
     d="M 0,128 0,0 l 128,0 128,0 0,128 0,128 -128,0 -128,0 0,-128 z m 147.97541,69.5 c 9.4756,-15.4 17.80892,-28.9225 18.51849,-30.05001 0.70957,-1.1275 15.95035,-10.8025 33.8684,-21.5 17.91806,-10.69749 32.59165,-19.7067 32.60799,-20.02045 0.0163,-0.31376 -14.03279,-8.20634 -31.22029,-17.53908 L 170.5,91.421841 148,58.786613 C 135.625,40.837237 125.1952,26.454823 124.82266,26.825692 124.45012,27.196562 115.50785,41.225 104.95096,58 94.394061,74.775 85.023866,89.239976 84.128301,90.144391 83.232735,91.048806 68.2125,99.58029 50.75,109.10324 33.2875,118.6262 19,126.72482 19,127.10019 c 0,0.37536 14.986127,9.09887 33.302505,19.38557 l 33.302505,18.70308 21.4475,31.33159 c 16.11985,23.54871 21.72658,31.03947 22.57102,30.15558 C 130.24146,226.0292 138.49981,212.9 147.97541,197.5 z"
     id="path3276"
     style="fill:#000000" />
</svg>
