<?xml version="1.0" encoding="UTF-8" standalone="no"?>
<!-- Created with Inkscape (http://www.inkscape.org/) -->

<svg
   xmlns:dc="http://purl.org/dc/elements/1.1/"
   xmlns:cc="http://creativecommons.org/ns#"
   xmlns:rdf="http://www.w3.org/1999/02/22-rdf-syntax-ns#"
   xmlns:svg="http://www.w3.org/2000/svg"
   xmlns="http://www.w3.org/2000/svg"
   xmlns:sodipodi="http://sodipodi.sourceforge.net/DTD/sodipodi-0.dtd"
   xmlns:inkscape="http://www.inkscape.org/namespaces/inkscape"
   id="svg2985"
   version="1.1"
   inkscape:version="0.48.5 r10040"
   width="144"
   height="144"
   xml:space="preserve"
   sodipodi:docname="icon.svg"><metadata
     id="metadata2991"><rdf:RDF><cc:Work
         rdf:about=""><dc:format>image/svg+xml</dc:format><dc:type
           rdf:resource="http://purl.org/dc/dcmitype/StillImage" /><dc:title /></cc:Work></rdf:RDF></metadata><defs
     id="defs2989"><clipPath
       clipPathUnits="userSpaceOnUse"
       id="clipPath3001"><path
         d="m 0,850.394 850.394,0 L 850.394,0 0,0 0,850.394 z"
         id="path3003"
         inkscape:connector-curvature="0" /></clipPath><clipPath
       clipPathUnits="userSpaceOnUse"
       id="clipPath3015"><path
         d="m 0,850.394 850.394,0 L 850.394,0 0,0 0,850.394 z"
         id="path3017"
         inkscape:connector-curvature="0" /></clipPath></defs><sodipodi:namedview
     pagecolor="#ffffff"
     bordercolor="#666666"
     borderopacity="1"
     objecttolerance="10"
     gridtolerance="10"
     guidetolerance="10"
     inkscape:pageopacity="0"
     inkscape:pageshadow="2"
     inkscape:window-width="827"
     inkscape:window-height="573"
     id="namedview2987"
     showgrid="false"
     fit-margin-top="0"
     fit-margin-left="0"
     fit-margin-right="0"
     fit-margin-bottom="0"
     inkscape:zoom="0.22201473"
     inkscape:cx="463.76499"
     inkscape:cy="173.24366"
     inkscape:window-x="1440"
     inkscape:window-y="0"
     inkscape:window-maximized="0"
     inkscape:current-layer="g2993" /><g
     id="g2993"
     inkscape:groupmode="layer"
     inkscape:label="logo"
     transform="matrix(1.25,0,0,-1.25,-67.731286,502.25256)"><path
       d="m 54.185029,286.60205 115.200001,0 0,115.2 -115.200001,0 0,-115.2 z"
       style="fill:#324266;fill-opacity:1;fill-rule:nonzero;stroke:none"
       id="path2995"
       inkscape:connector-curvature="0" /><g
       clip-path="url(#clipPath3015)"
       id="g3013"
       transform="matrix(0.42107335,0,0,0.42107335,31.369158,165.92157)"><g
         transform="translate(437.6338,437.4917)"
         id="g3019" /><g
         transform="translate(478.0957,462.2788)"
         id="g3023" /><g
         transform="translate(620.8105,444.8677)"
         id="g3027" /><g
         transform="translate(659.1982,460.1021)"
         id="g3031" /><g
         transform="translate(701.1367,460.1021)"
         id="g3035" /><g
         transform="translate(251.7095,463.5552)"
         id="g3039"><path
           inkscape:connector-curvature="0"
           id="path3041"
           style="fill:#72aeb6;fill-opacity:1;fill-rule:evenodd;stroke:none"
           d="m 0,0 c 3.775,0 6.835,-17.173 6.835,-38.358 0,-21.185 -3.06,-38.358 -6.835,-38.358 -3.774,0 -6.834,17.173 -6.834,38.358 C -6.834,-17.173 -3.774,0 0,0 m 0,-8.607 c 2.928,0 5.301,-13.32 5.301,-29.751 C 5.301,-54.79 2.928,-68.11 0,-68.11 c -2.927,0 -5.3,13.32 -5.3,29.752 0,16.431 2.373,29.751 5.3,29.751" /></g><g
         transform="translate(251.7095,447.1216)"
         id="g3043"><path
           inkscape:connector-curvature="0"
           id="path3045"
           style="fill:#72aeb6;fill-opacity:1;fill-rule:evenodd;stroke:none"
           d="M 0,0 C 2.158,0 3.907,-9.816 3.907,-21.925 3.907,-34.034 2.158,-43.85 0,-43.85 c -2.157,0 -3.906,9.816 -3.906,21.925 C -3.906,-9.816 -2.157,0 0,0" /></g><g
         transform="translate(252.7056,427.5464)"
         id="g3047"><path
           inkscape:connector-curvature="0"
           id="path3049"
           style="fill:#bbbbaa;fill-opacity:1;fill-rule:nonzero;stroke:none"
           d="m 0,0 c -0.814,1.73 -3.616,1.044 -4.637,-0.136 -0.77,-0.889 -1.284,-2.057 -2.19,-2.799 -2.225,-1.846 -5.716,-3.996 -8.532,-5.124 -2.315,-0.93 -5.003,-1.08 -7.443,-2.045 -3.406,-1.353 -5.464,-2.229 -9.765,-2.185 -1.269,1.278 -0.806,3.516 -1.433,5.528 -2.239,4.669 -5.514,13.388 -1.43,16.654 0.023,0.025 0.04,0.052 0.069,0.07 0.623,0.404 1.33,0.592 1.775,1.165 1.263,1.641 2.206,3.862 3.961,4.985 2.25,1.443 4.595,2.628 6.552,4.368 0.577,-0.134 3.871,-3.419 4.423,-3.613 -0.255,0.25 -3.693,3.366 -3.946,3.613 -0.123,0.203 0.084,0.569 0.303,0.999 0.126,0.261 0.053,0.245 0.314,0.148 0.693,-0.259 2.89,-1.155 2.901,-1.127 0.012,0.032 -2.219,1.03 -2.846,1.336 -0.224,0.111 -0.164,0.049 -0.088,0.285 0.093,0.277 0.136,0.566 0.068,0.84 -0.029,0.123 -0.077,0.12 0.049,0.12 0.569,0.009 3.669,-0.009 3.821,0.019 -0.129,0.102 -3.088,0.147 -3.732,0.172 -0.121,0.004 -0.1,-0.014 -0.134,0.102 -0.585,2.003 -0.249,4.166 -1.268,5.639 -0.934,1.352 -2.782,0.905 -4.436,1.571 -1.234,0.491 -1.605,1.407 -2.53,2.116 -1.066,0.817 -3.393,1.47 -4.707,1.845 -1.28,0.363 -2.464,-0.352 -3.414,-0.543 -1.654,-0.327 -6.123,-0.366 -7.443,0.066 -3.238,1.062 -4.146,6.91 -8.062,6.893 -2.211,-1.904 -1.034,-7.944 -0.68,-10.719 0.066,-0.523 -0.482,-0.647 -0.612,-0.954 l 0,-0.206 c -7.154,-46.45 -32.454,-14.19 -78.28,-34.883 -10.69,-4.829 -11.336,-12.756 -14.966,-22.711 -4.546,-12.455 -10.314,-28.48 -19.947,-28.292 -4.329,0.084 -3.069,2.04 -3.077,5.668 -0.006,1.952 -0.328,3.691 -2.182,4.296 -10.837,-5.047 -0.143,-29.987 19.453,-9.009 3.107,5.826 8.939,11.677 10.787,18.978 0.403,0.805 2.489,4.799 3.349,5.191 0.453,-1.837 6.249,-8.485 6.962,-8.946 -1.257,-3.998 -6.596,-4.225 -7.715,-5.802 -1.875,-2.613 -1.133,-20 -0.615,-21.716 0.484,-1.589 0.083,-3.2 0.753,-4.575 0.517,-1.044 4.033,-3.781 5.321,-4.09 2.524,-0.602 5.51,1.329 4.989,3.687 -0.547,2.451 -3.843,2.551 -4.24,4.438 -0.222,1.107 0.363,2.113 0.278,3.412 0.136,2.346 0.271,4.688 0.401,7.028 0.947,3.186 9.117,6.229 11.547,4.852 2.297,-2.33 -0.459,-7.702 0.547,-9.558 3.568,-6.687 25.939,-10.218 29.014,-4.784 0.275,0.505 0.809,1.831 0.545,2.667 -0.222,0.735 -3.243,2.429 -4.639,2.187 -0.911,-0.158 -3.302,-0.975 -4.371,-0.756 -2.891,0.608 -5.673,1.625 -8.328,2.394 0.407,6.685 8.836,19.735 8.804,20.272 7.589,0 18.129,4.24 29.155,3.483 0.069,-0.064 0.135,-0.129 0.208,-0.201 -0.129,-0.885 -0.467,-24.677 0.473,-28.679 -0.407,-1.33 2.191,-9.231 3.343,-9.892 2.454,-1.416 11.525,-1.218 10.721,2.387 -0.295,1.318 -2.214,2.954 -3.547,3.201 -0.664,0.131 -1.406,-0.561 -1.98,-0.197 -1.334,0.83 -1.139,6.111 -0.755,7.85 1.941,8.721 1.354,16.955 4.417,21.737 2.952,4.61 9.52,5.804 13.885,12.263 l 0.272,0 c 4.552,3.381 10.141,2.041 17.759,5.769 C -12.786,-16.411 2.732,-5.748 0,0" /></g><g
         transform="translate(157.9312,477.2715)"
         id="g3051"><path
           inkscape:connector-curvature="0"
           id="path3053"
           style="fill:#72aeb6;fill-opacity:1;fill-rule:evenodd;stroke:none"
           d="m 0,0 c -2.492,-1.304 -4.42,-7.292 -4.42,-13.352 l 0,-29.075 c 1.386,0.052 2.787,0.081 4.206,0.09 l 0,30.708 c 0,0.249 0.107,0.538 0.214,0.581 l 37.94,15.644 84.873,34.99 c 0.503,0.208 0.978,-0.159 0.978,-0.719 l 0,-90.982 0,-90.957 c 0,-0.562 -0.475,-0.927 -0.978,-0.72 l -84.888,35.027 -0.168,0.07 c -0.245,-1.729 -0.535,-3.456 -0.92,-5.19 -0.075,-0.346 -0.13,-0.996 -0.152,-1.687 4.225,-1.55 7.954,-6.309 6.14,-10.976 l 79.988,-41.861 c 13.366,-6.997 25.69,-0.538 25.69,15.269 l 0,101.021 0,101.047 c 0,15.807 -12.324,22.343 -25.69,15.345 L 37.94,19.858 0,0 z" /></g></g></g></svg>