<?xml version="1.0" encoding="UTF-8" standalone="no"?>
<!-- Created with Inkscape (http://www.inkscape.org/) -->

<svg
   xmlns:dc="http://purl.org/dc/elements/1.1/"
   xmlns:cc="http://creativecommons.org/ns#"
   xmlns:rdf="http://www.w3.org/1999/02/22-rdf-syntax-ns#"
   xmlns:svg="http://www.w3.org/2000/svg"
   xmlns="http://www.w3.org/2000/svg"
   version="1.1"
   width="256"
   height="256"
   id="svg3531">
  <metadata
     id="metadata3537">
    <rdf:RDF>
      <cc:Work
         rdf:about="">
        <dc:format>image/svg+xml</dc:format>
        <dc:type
           rdf:resource="http://purl.org/dc/dcmitype/StillImage" />
        <dc:title></dc:title>
      </cc:Work>
    </rdf:RDF>
  </metadata>
  <defs
     id="defs3535" />
  <path
     d="M 0,128 0,0 l 128,0 128,0 0,128 0,128 -128,0 L 0,256 0,128 z M 191.34302,213.74384 238.18604,195.5 212.09302,195.2334 186,194.96679 186,127.00028 186,59.033765 211.48637,58.766882 236.97274,58.5 182.33197,37.280542 127.6912,16.061083 73.095599,37.50339 18.5,58.945697 45.25,58.972848 72,59 l 0,67.9834 0,67.98339 -25.97855,0.26661 -25.97855,0.2666 53.70332,21.59416 53.70332,21.59417 8.52523,-3.35032 c 4.68888,-1.84268 29.60459,-11.56005 55.36825,-21.59417 z"
     id="path3541"
     style="fill:#000000" />
</svg>
