<?xml version="1.0" encoding="UTF-8" standalone="no"?>
<!-- Created with Inkscape (http://www.inkscape.org/) -->

<svg
   xmlns:dc="http://purl.org/dc/elements/1.1/"
   xmlns:cc="http://creativecommons.org/ns#"
   xmlns:rdf="http://www.w3.org/1999/02/22-rdf-syntax-ns#"
   xmlns:svg="http://www.w3.org/2000/svg"
   xmlns="http://www.w3.org/2000/svg"
   version="1.1"
   width="256"
   height="256"
   id="svg3613">
  <metadata
     id="metadata3619">
    <rdf:RDF>
      <cc:Work
         rdf:about="">
        <dc:format>image/svg+xml</dc:format>
        <dc:type
           rdf:resource="http://purl.org/dc/dcmitype/StillImage" />
        <dc:title></dc:title>
      </cc:Work>
    </rdf:RDF>
  </metadata>
  <defs
     id="defs3617" />
  <path
     d="M 0,128 0,0 l 128,0 128,0 0,128 0,128 -128,0 -128,0 0,-128 z m 58,16.5 0,-5.5 68.9501,0 68.95009,0 0.29991,5.59238 0.2999,5.59237 23.5,-11.7332 23.5,-11.73321 -22.97728,-11.35917 C 207.88522,109.11163 197.19772,104 196.77272,104 196.34773,104 196,106.475 196,109.5 l 0,5.5 -69,0 -69,0 0,-5.5 C 58,106.475 57.738678,104 57.419284,104 56.190153,104 11,126.41517 11,127.02484 c 0,0.61388 44.68638,22.73802 46.25,22.89829 C 57.6625,149.96541 58,147.525 58,144.5 z"
     id="path3623"
     style="fill:#000000" />
</svg>
